<svg width="492" height="125" viewBox="0 0 492 125" fill="none" xmlns="http://www.w3.org/2000/svg">
<path d="M63.8 96V28.8H86.456C94.008 28.8 99.928 30.592 104.216 34.176C108.568 37.696 110.744 42.976 110.744 50.016C110.744 57.12 108.568 62.496 104.216 66.144C99.928 69.792 94.008 71.616 86.456 71.616H77.24V96H63.8ZM77.24 59.52H85.688C89.336 59.52 92.152 58.752 94.136 57.216C96.12 55.68 97.112 53.312 97.112 50.112C97.112 46.912 96.12 44.576 94.136 43.104C92.152 41.568 89.336 40.8 85.688 40.8H77.24V59.52ZM136.03 97.248C131.486 97.248 127.326 96.096 123.549 93.792C119.838 91.424 116.862 88.288 114.622 84.384C112.446 80.416 111.358 76.032 111.358 71.232C111.358 67.648 111.998 64.288 113.278 61.152C114.558 57.952 116.318 55.168 118.558 52.8C120.798 50.368 123.39 48.48 126.334 47.136C129.342 45.728 132.574 45.024 136.03 45.024C140.382 45.024 143.774 45.856 146.206 47.52C148.638 49.12 150.526 51.264 151.87 53.952V46.08H164.734V96H152.158V87.84C150.814 90.656 148.894 92.928 146.398 94.656C143.966 96.384 140.51 97.248 136.03 97.248ZM138.142 85.536C141.022 85.536 143.486 84.896 145.534 83.616C147.646 82.272 149.278 80.512 150.43 78.336C151.582 76.16 152.158 73.792 152.158 71.232C152.158 68.608 151.582 66.208 150.43 64.032C149.278 61.856 147.646 60.096 145.534 58.752C143.486 57.408 141.022 56.736 138.142 56.736C135.39 56.736 132.958 57.408 130.846 58.752C128.798 60.032 127.198 61.76 126.046 63.936C124.894 66.112 124.318 68.512 124.318 71.136C124.318 73.632 124.894 76 126.046 78.24C127.198 80.416 128.798 82.176 130.846 83.52C132.958 84.864 135.39 85.536 138.142 85.536ZM172.434 96V25.92H185.394V96H172.434ZM215.811 97.248C211.267 97.248 207.107 96.096 203.331 93.792C199.619 91.424 196.643 88.288 194.403 84.384C192.227 80.416 191.139 76.032 191.139 71.232C191.139 67.648 191.779 64.288 193.059 61.152C194.339 57.952 196.099 55.168 198.339 52.8C200.579 50.368 203.171 48.48 206.115 47.136C209.123 45.728 212.355 45.024 215.811 45.024C220.163 45.024 223.555 45.856 225.987 47.52C228.419 49.12 230.307 51.264 231.651 53.952V46.08H244.515V96H231.939V87.84C230.595 90.656 228.675 92.928 226.179 94.656C223.747 96.384 220.291 97.248 215.811 97.248ZM217.923 85.536C220.803 85.536 223.267 84.896 225.315 83.616C227.427 82.272 229.059 80.512 230.211 78.336C231.363 76.16 231.939 73.792 231.939 71.232C231.939 68.608 231.363 66.208 230.211 64.032C229.059 61.856 227.427 60.096 225.315 58.752C223.267 57.408 220.803 56.736 217.923 56.736C215.171 56.736 212.739 57.408 210.627 58.752C208.579 60.032 206.979 61.76 205.827 63.936C204.675 66.112 204.099 68.512 204.099 71.136C204.099 73.632 204.675 76 205.827 78.24C206.979 80.416 208.579 82.176 210.627 83.52C212.739 84.864 215.171 85.536 217.923 85.536ZM271.127 96C266.199 96 262.423 94.784 259.799 92.352C257.175 89.92 255.863 85.984 255.863 80.544V57.12H248.855V46.08H255.863V36L268.823 34.656V46.08H279.383V57.12H268.823V79.872C268.823 82.944 270.167 84.48 272.855 84.48H278.231V96H271.127ZM305.155 97.248C300.611 97.248 296.451 96.096 292.674 93.792C288.963 91.424 285.987 88.288 283.747 84.384C281.571 80.416 280.483 76.032 280.483 71.232C280.483 67.648 281.123 64.288 282.403 61.152C283.683 57.952 285.443 55.168 287.683 52.8C289.923 50.368 292.515 48.48 295.459 47.136C298.467 45.728 301.699 45.024 305.155 45.024C309.507 45.024 312.899 45.856 315.331 47.52C317.763 49.12 319.651 51.264 320.995 53.952V46.08H333.859V96H321.283V87.84C319.939 90.656 318.019 92.928 315.523 94.656C313.091 96.384 309.635 97.248 305.155 97.248ZM307.267 85.536C310.147 85.536 312.611 84.896 314.659 83.616C316.771 82.272 318.403 80.512 319.555 78.336C320.707 76.16 321.283 73.792 321.283 71.232C321.283 68.608 320.707 66.208 319.555 64.032C318.403 61.856 316.771 60.096 314.659 58.752C312.611 57.408 310.147 56.736 307.267 56.736C304.515 56.736 302.083 57.408 299.971 58.752C297.923 60.032 296.323 61.76 295.171 63.936C294.019 66.112 293.443 68.512 293.443 71.136C293.443 73.632 294.019 76 295.171 78.24C296.323 80.416 297.923 82.176 299.971 83.52C302.083 84.864 304.515 85.536 307.267 85.536ZM370.263 97.248C365.783 97.248 362.295 96.384 359.799 94.656C357.367 92.928 355.479 90.656 354.135 87.84V96H341.559V25.92H354.519V53.76C355.863 51.136 357.751 49.024 360.183 47.424C362.615 45.824 365.975 45.024 370.263 45.024C373.719 45.024 376.919 45.728 379.863 47.136C382.871 48.48 385.495 50.368 387.735 52.8C389.975 55.168 391.735 57.952 393.015 61.152C394.295 64.288 394.935 67.648 394.935 71.232C394.935 76.032 393.815 80.416 391.575 84.384C389.399 88.288 386.455 91.424 382.743 93.792C379.031 96.096 374.871 97.248 370.263 97.248ZM368.151 85.536C370.903 85.536 373.303 84.864 375.351 83.52C377.463 82.176 379.095 80.416 380.247 78.24C381.399 76 381.975 73.632 381.975 71.136C381.975 68.512 381.399 66.112 380.247 63.936C379.095 61.76 377.463 60.032 375.351 58.752C373.303 57.408 370.903 56.736 368.151 56.736C365.335 56.736 362.871 57.408 360.759 58.752C358.647 60.096 357.015 61.856 355.863 64.032C354.711 66.208 354.135 68.608 354.135 71.232C354.135 73.792 354.711 76.16 355.863 78.336C357.015 80.512 358.647 82.272 360.759 83.616C362.871 84.896 365.335 85.536 368.151 85.536ZM400.715 96V25.92H413.675V96H400.715ZM445.244 97.248C440.124 97.248 435.612 96.064 431.708 93.696C427.804 91.328 424.764 88.192 422.588 84.288C420.476 80.32 419.42 75.936 419.42 71.136C419.42 66.336 420.54 61.952 422.78 57.984C425.02 53.952 428.06 50.752 431.9 48.384C435.804 46.016 440.252 44.832 445.244 44.832C450.236 44.832 454.62 46.016 458.396 48.384C462.236 50.752 465.212 53.952 467.324 57.984C469.5 61.952 470.588 66.336 470.588 71.136C470.588 71.84 470.556 72.576 470.492 73.344C470.428 74.112 470.332 74.912 470.204 75.744H432.86C433.564 78.688 434.972 81.088 437.084 82.944C439.26 84.8 441.98 85.728 445.244 85.728C448.06 85.728 450.492 85.088 452.54 83.808C454.652 82.528 456.284 80.928 457.436 79.008L467.516 86.592C465.532 89.728 462.556 92.288 458.588 94.272C454.62 96.256 450.172 97.248 445.244 97.248ZM445.052 55.968C441.98 55.968 439.356 56.896 437.18 58.752C435.004 60.608 433.564 63.04 432.86 66.048H457.532C456.828 63.296 455.356 60.928 453.116 58.944C450.94 56.96 448.252 55.968 445.052 55.968ZM481.315 97.248C478.819 97.248 476.739 96.416 475.075 94.752C473.475 93.088 472.675 91.104 472.675 88.8C472.675 86.56 473.475 84.608 475.075 82.944C476.739 81.28 478.819 80.448 481.315 80.448C483.811 80.448 485.859 81.28 487.459 82.944C489.059 84.608 489.859 86.56 489.859 88.8C489.859 91.104 489.059 93.088 487.459 94.752C485.859 96.416 483.811 97.248 481.315 97.248Z" fill="#2C2C2C"/>
<rect x="38.9757" y="29" width="20" height="67" fill="#ED8ED4" style="mix-blend-mode:multiply"/>
<path d="M28.4617 30.6119C30.0612 24.7511 36.109 21.2966 41.9698 22.8961L42.6522 23.0824C48.5129 24.6818 51.9674 30.7296 50.3679 36.5904L41.3234 69.7311C39.7239 75.5919 33.6762 79.0464 27.8154 77.4469L27.133 77.2607C21.2722 75.6612 17.8177 69.6134 19.4172 63.7526L28.4617 30.6119Z" fill="#FFDA45" style="mix-blend-mode:multiply"/>
<path d="M11.2481 67.0419C17.4978 61.9456 22.6082 55.0029 31.5 54.9999C40.3918 54.9969 42.4582 63.6096 46.4946 70.3644C50.531 77.1192 53.9768 80.9138 51.9884 88.7069C50 96.5 36.5525 92.3802 26.4879 91.1943C16.9156 90.0665 9.15758 92.2993 3.99019 85.2523C-0.00792755 79.8 4.66083 72.4135 11.2481 67.0419Z" fill="#88DAFD" style="mix-blend-mode:multiply"/>
</svg>
