<svg width="470" height="125" viewBox="0 0 470 125" fill="none" xmlns="http://www.w3.org/2000/svg">
<path d="M41.8 96V28.8H64.456C72.008 28.8 77.928 30.592 82.216 34.176C86.568 37.696 88.744 42.976 88.744 50.016C88.744 57.12 86.568 62.496 82.216 66.144C77.928 69.792 72.008 71.616 64.456 71.616H55.24V96H41.8ZM55.24 59.52H63.688C67.336 59.52 70.152 58.752 72.136 57.216C74.12 55.68 75.112 53.312 75.112 50.112C75.112 46.912 74.12 44.576 72.136 43.104C70.152 41.568 67.336 40.8 63.688 40.8H55.24V59.52ZM114.03 97.248C109.486 97.248 105.326 96.096 101.549 93.792C97.8375 91.424 94.8615 88.288 92.6215 84.384C90.4455 80.416 89.3575 76.032 89.3575 71.232C89.3575 67.648 89.9975 64.288 91.2775 61.152C92.5575 57.952 94.3175 55.168 96.5575 52.8C98.7975 50.368 101.39 48.48 104.334 47.136C107.342 45.728 110.574 45.024 114.03 45.024C118.382 45.024 121.774 45.856 124.206 47.52C126.638 49.12 128.526 51.264 129.87 53.952V46.08H142.734V96H130.158V87.84C128.814 90.656 126.894 92.928 124.398 94.656C121.966 96.384 118.51 97.248 114.03 97.248ZM116.142 85.536C119.022 85.536 121.486 84.896 123.534 83.616C125.646 82.272 127.278 80.512 128.43 78.336C129.582 76.16 130.158 73.792 130.158 71.232C130.158 68.608 129.582 66.208 128.43 64.032C127.278 61.856 125.646 60.096 123.534 58.752C121.486 57.408 119.022 56.736 116.142 56.736C113.39 56.736 110.958 57.408 108.846 58.752C106.798 60.032 105.198 61.76 104.046 63.936C102.894 66.112 102.318 68.512 102.318 71.136C102.318 73.632 102.894 76 104.046 78.24C105.198 80.416 106.798 82.176 108.846 83.52C110.958 84.864 113.39 85.536 116.142 85.536ZM150.434 96V25.92H163.394V96H150.434ZM193.811 97.248C189.267 97.248 185.107 96.096 181.331 93.792C177.619 91.424 174.643 88.288 172.403 84.384C170.227 80.416 169.139 76.032 169.139 71.232C169.139 67.648 169.779 64.288 171.059 61.152C172.339 57.952 174.099 55.168 176.339 52.8C178.579 50.368 181.171 48.48 184.115 47.136C187.123 45.728 190.355 45.024 193.811 45.024C198.163 45.024 201.555 45.856 203.987 47.52C206.419 49.12 208.307 51.264 209.651 53.952V46.08H222.515V96H209.939V87.84C208.595 90.656 206.675 92.928 204.179 94.656C201.747 96.384 198.291 97.248 193.811 97.248ZM195.923 85.536C198.803 85.536 201.267 84.896 203.315 83.616C205.427 82.272 207.059 80.512 208.211 78.336C209.363 76.16 209.939 73.792 209.939 71.232C209.939 68.608 209.363 66.208 208.211 64.032C207.059 61.856 205.427 60.096 203.315 58.752C201.267 57.408 198.803 56.736 195.923 56.736C193.171 56.736 190.739 57.408 188.627 58.752C186.579 60.032 184.979 61.76 183.827 63.936C182.675 66.112 182.099 68.512 182.099 71.136C182.099 73.632 182.675 76 183.827 78.24C184.979 80.416 186.579 82.176 188.627 83.52C190.739 84.864 193.171 85.536 195.923 85.536ZM249.127 96C244.199 96 240.423 94.784 237.799 92.352C235.175 89.92 233.863 85.984 233.863 80.544V57.12H226.855V46.08H233.863V36L246.823 34.656V46.08H257.383V57.12H246.823V79.872C246.823 82.944 248.167 84.48 250.855 84.48H256.231V96H249.127ZM283.155 97.248C278.611 97.248 274.451 96.096 270.674 93.792C266.963 91.424 263.987 88.288 261.747 84.384C259.571 80.416 258.483 76.032 258.483 71.232C258.483 67.648 259.123 64.288 260.403 61.152C261.683 57.952 263.443 55.168 265.683 52.8C267.923 50.368 270.515 48.48 273.459 47.136C276.467 45.728 279.699 45.024 283.155 45.024C287.507 45.024 290.899 45.856 293.331 47.52C295.763 49.12 297.651 51.264 298.995 53.952V46.08H311.859V96H299.283V87.84C297.939 90.656 296.019 92.928 293.523 94.656C291.091 96.384 287.635 97.248 283.155 97.248ZM285.267 85.536C288.147 85.536 290.611 84.896 292.659 83.616C294.771 82.272 296.403 80.512 297.555 78.336C298.707 76.16 299.283 73.792 299.283 71.232C299.283 68.608 298.707 66.208 297.555 64.032C296.403 61.856 294.771 60.096 292.659 58.752C290.611 57.408 288.147 56.736 285.267 56.736C282.515 56.736 280.083 57.408 277.971 58.752C275.923 60.032 274.323 61.76 273.171 63.936C272.019 66.112 271.443 68.512 271.443 71.136C271.443 73.632 272.019 76 273.171 78.24C274.323 80.416 275.923 82.176 277.971 83.52C280.083 84.864 282.515 85.536 285.267 85.536ZM348.263 97.248C343.783 97.248 340.295 96.384 337.799 94.656C335.367 92.928 333.479 90.656 332.135 87.84V96H319.559V25.92H332.519V53.76C333.863 51.136 335.751 49.024 338.183 47.424C340.615 45.824 343.975 45.024 348.263 45.024C351.719 45.024 354.919 45.728 357.863 47.136C360.871 48.48 363.495 50.368 365.735 52.8C367.975 55.168 369.735 57.952 371.015 61.152C372.295 64.288 372.935 67.648 372.935 71.232C372.935 76.032 371.815 80.416 369.575 84.384C367.399 88.288 364.455 91.424 360.743 93.792C357.031 96.096 352.871 97.248 348.263 97.248ZM346.151 85.536C348.903 85.536 351.303 84.864 353.351 83.52C355.463 82.176 357.095 80.416 358.247 78.24C359.399 76 359.975 73.632 359.975 71.136C359.975 68.512 359.399 66.112 358.247 63.936C357.095 61.76 355.463 60.032 353.351 58.752C351.303 57.408 348.903 56.736 346.151 56.736C343.335 56.736 340.871 57.408 338.759 58.752C336.647 60.096 335.015 61.856 333.863 64.032C332.711 66.208 332.135 68.608 332.135 71.232C332.135 73.792 332.711 76.16 333.863 78.336C335.015 80.512 336.647 82.272 338.759 83.616C340.871 84.896 343.335 85.536 346.151 85.536ZM378.715 96V25.92H391.675V96H378.715ZM423.244 97.248C418.124 97.248 413.612 96.064 409.708 93.696C405.804 91.328 402.764 88.192 400.588 84.288C398.476 80.32 397.42 75.936 397.42 71.136C397.42 66.336 398.54 61.952 400.78 57.984C403.02 53.952 406.06 50.752 409.9 48.384C413.804 46.016 418.252 44.832 423.244 44.832C428.236 44.832 432.62 46.016 436.396 48.384C440.236 50.752 443.212 53.952 445.324 57.984C447.5 61.952 448.588 66.336 448.588 71.136C448.588 71.84 448.556 72.576 448.492 73.344C448.428 74.112 448.332 74.912 448.204 75.744H410.86C411.564 78.688 412.972 81.088 415.084 82.944C417.26 84.8 419.98 85.728 423.244 85.728C426.06 85.728 428.492 85.088 430.54 83.808C432.652 82.528 434.284 80.928 435.436 79.008L445.516 86.592C443.532 89.728 440.556 92.288 436.588 94.272C432.62 96.256 428.172 97.248 423.244 97.248ZM423.052 55.968C419.98 55.968 417.356 56.896 415.18 58.752C413.004 60.608 411.564 63.04 410.86 66.048H435.532C434.828 63.296 433.356 60.928 431.116 58.944C428.94 56.96 426.252 55.968 423.052 55.968ZM459.315 97.248C456.819 97.248 454.739 96.416 453.075 94.752C451.475 93.088 450.675 91.104 450.675 88.8C450.675 86.56 451.475 84.608 453.075 82.944C454.739 81.28 456.819 80.448 459.315 80.448C461.811 80.448 463.859 81.28 465.459 82.944C467.059 84.608 467.859 86.56 467.859 88.8C467.859 91.104 467.059 93.088 465.459 94.752C463.859 96.416 461.811 97.248 459.315 97.248Z" fill="#2C2C2C"/>
<rect x="16.9757" y="29" width="20" height="67" fill="#ED8ED4" style="mix-blend-mode:multiply"/>
<path d="M8.12658 30.9201C8.78737 25.9937 13.3167 22.5357 18.2432 23.1965C23.1696 23.8573 26.6276 28.3866 25.9668 33.313L20.6883 72.6662C20.0275 77.5927 15.4982 81.0507 10.5717 80.3899C5.64529 79.7291 2.18729 75.1998 2.84808 70.2733L8.12658 30.9201Z" fill="#FFDA45" style="mix-blend-mode:multiply"/>
<path d="M2.65278 29L6.15162 29L28.6516 96.0294L2.65278 96.0294L2.65278 62.5147L2.65278 29Z" fill="#88DAFD" style="mix-blend-mode:multiply"/>
</svg>
