<svg width="103" height="125" viewBox="0 0 103 125" fill="none" xmlns="http://www.w3.org/2000/svg">
<path d="M41.4516 96V28.8H64.1076C71.6596 28.8 77.5796 30.592 81.8676 34.176C86.2196 37.696 88.3956 42.976 88.3956 50.016C88.3956 57.12 86.2196 62.496 81.8676 66.144C77.5796 69.792 71.6596 71.616 64.1076 71.616H54.8916V96H41.4516ZM54.8916 59.52H63.3396C66.9876 59.52 69.8036 58.752 71.7876 57.216C73.7716 55.68 74.7636 53.312 74.7636 50.112C74.7636 46.912 73.7716 44.576 71.7876 43.104C69.8036 41.568 66.9876 40.8 63.3396 40.8H54.8916V59.52ZM91.4661 97.248C88.9701 97.248 86.8901 96.416 85.2261 94.752C83.6261 93.088 82.8261 91.104 82.8261 88.8C82.8261 86.56 83.6261 84.608 85.2261 82.944C86.8901 81.28 88.9701 80.448 91.4661 80.448C93.9621 80.448 96.0101 81.28 97.6101 82.944C99.2101 84.608 100.01 86.56 100.01 88.8C100.01 91.104 99.2101 93.088 97.6101 94.752C96.0101 96.416 93.9621 97.248 91.4661 97.248Z" fill="#2C2C2C"/>
<rect x="16.9757" y="29" width="20" height="67" fill="#ED8ED4" style="mix-blend-mode:multiply"/>
<path d="M8.12658 30.9201C8.78737 25.9937 13.3167 22.5357 18.2432 23.1965C23.1696 23.8573 26.6276 28.3866 25.9668 33.313L20.6883 72.6662C20.0275 77.5927 15.4982 81.0507 10.5717 80.3899C5.64529 79.7291 2.18729 75.1998 2.84808 70.2733L8.12658 30.9201Z" fill="#FFDA45" style="mix-blend-mode:multiply"/>
<path d="M2.65278 29L6.15162 29L28.6516 96.0294L2.65278 96.0294L2.65278 62.5147L2.65278 29Z" fill="#88DAFD" style="mix-blend-mode:multiply"/>
</svg>
