<svg width="123" height="125" viewBox="0 0 123 125" fill="none" xmlns="http://www.w3.org/2000/svg">
<path d="M61.8 96V28.8H84.456C92.008 28.8 97.928 30.592 102.216 34.176C106.568 37.696 108.744 42.976 108.744 50.016C108.744 57.12 106.568 62.496 102.216 66.144C97.928 69.792 92.008 71.616 84.456 71.616H75.24V96H61.8ZM75.24 59.52H83.688C87.336 59.52 90.152 58.752 92.136 57.216C94.12 55.68 95.112 53.312 95.112 50.112C95.112 46.912 94.12 44.576 92.136 43.104C90.152 41.568 87.336 40.8 83.688 40.8H75.24V59.52ZM111.815 97.248C109.319 97.248 107.239 96.416 105.575 94.752C103.975 93.088 103.175 91.104 103.175 88.8C103.175 86.56 103.975 84.608 105.575 82.944C107.239 81.28 109.319 80.448 111.815 80.448C114.311 80.448 116.359 81.28 117.959 82.944C119.559 84.608 120.359 86.56 120.359 88.8C120.359 91.104 119.559 93.088 117.959 94.752C116.359 96.416 114.311 97.248 111.815 97.248Z" fill="#2C2C2C"/>
<rect x="37.4458" y="29" width="20" height="67" fill="#ED8ED4" style="mix-blend-mode:multiply"/>
<path d="M26.9318 30.6119C28.5313 24.7511 34.579 21.2966 40.4398 22.8961L41.1222 23.0824C46.983 24.6818 50.4375 30.7296 48.838 36.5904L39.7935 69.7311C38.194 75.5919 32.1462 79.0464 26.2854 77.4469L25.603 77.2607C19.7423 75.6612 16.2878 69.6134 17.8873 63.7526L26.9318 30.6119Z" fill="#FFDA45" style="mix-blend-mode:multiply"/>
<path d="M9.71817 67.0419C15.9679 61.9456 21.0782 55.0029 29.97 54.9999C38.8618 54.9969 40.9283 63.6096 44.9647 70.3644C49.0011 77.1192 52.4468 80.9138 50.4584 88.7069C48.47 96.5 35.0226 92.3802 24.9579 91.1943C15.3857 90.0665 7.62762 92.2993 2.46023 85.2523C-1.53789 79.8 3.13087 72.4135 9.71817 67.0419Z" fill="#88DAFD" style="mix-blend-mode:multiply"/>
</svg>
